<svg width="256" height="256" viewBox="0 0 256 256" fill="none" xmlns="http://www.w3.org/2000/svg">
<rect width="256" height="256" rx="128" fill="#12131B"/>
<path d="M74.7802 116.39C81.1922 116.39 86.3902 111.192 86.3902 104.78C86.3902 98.3679 81.1922 93.1699 74.7802 93.1699C68.3681 93.1699 63.1702 98.3679 63.1702 104.78C63.1702 111.192 68.3681 116.39 74.7802 116.39Z" stroke="#FBB831" stroke-width="7.74" stroke-linecap="round" stroke-linejoin="round"/>
<path d="M82.9849 112.983L98.0005 127.999" stroke="#FBB831" stroke-width="7.74" stroke-linecap="round" stroke-linejoin="round"/>
<path d="M128.96 97.04L82.9849 143.016" stroke="#FBB831" stroke-width="7.74" stroke-linecap="round" stroke-linejoin="round"/>
<path d="M74.7802 162.83C81.1922 162.83 86.3902 157.632 86.3902 151.22C86.3902 144.808 81.1922 139.61 74.7802 139.61C68.3681 139.61 63.1702 144.808 63.1702 151.22C63.1702 157.632 68.3681 162.83 74.7802 162.83Z" stroke="#FBB831" stroke-width="7.74" stroke-linecap="round" stroke-linejoin="round"/>
<path d="M108.837 138.836L128.961 158.96" stroke="#FBB831" stroke-width="7.74" stroke-linecap="round" stroke-linejoin="round"/>
<path d="M156.19 166V154.545H175.076C178.447 154.545 181.062 153.513 182.919 151.449C184.846 149.385 185.809 146.942 185.809 144.122C185.809 142.195 185.396 140.441 184.57 138.858C183.745 137.276 182.506 136.038 180.855 135.143C179.273 134.18 177.346 133.698 175.076 133.698H156.19V122.346H173.528C176.418 122.346 178.722 121.624 180.442 120.179C182.231 118.734 183.126 116.567 183.126 113.678C183.126 110.719 182.231 108.518 180.442 107.073C178.722 105.628 176.418 104.906 173.528 104.906H156.19V93.4504H175.179C179.995 93.4504 184.02 94.3448 187.254 96.1336C190.556 97.8536 193.033 100.158 194.684 103.048C196.335 105.869 197.161 108.965 197.161 112.336C197.161 116.464 195.888 120.042 193.342 123.069C190.866 126.027 187.219 128.229 182.403 129.674L183.022 125.133C188.389 126.646 192.517 129.158 195.406 132.666C198.365 136.106 199.844 140.269 199.844 145.154C199.844 149.006 198.881 152.515 196.954 155.68C195.097 158.776 192.345 161.287 188.698 163.214C185.121 165.071 180.752 166 175.592 166H156.19ZM145.87 166V93.4504H159.802V166H145.87Z" fill="#F5F5F5"/>
</svg>
