<svg width="348" height="149" viewBox="0 0 348 149" fill="none" xmlns="http://www.w3.org/2000/svg">
<path d="M48.0282 72.8049C52.2708 73.7992 55.6185 75.8543 58.0713 78.97C60.5904 82.0857 61.8499 85.6986 61.8499 89.8086C61.8499 95.8411 59.828 100.548 55.7843 103.929C51.8068 107.31 46.0726 109 38.5816 109H5.86679V38.6979H37.7861C44.9456 38.6979 50.4809 40.2558 54.3921 43.3715C58.3033 46.4872 60.2589 50.9287 60.2589 56.696C60.2589 60.9387 59.132 64.4853 56.8781 67.3358C54.6242 70.1201 51.6742 71.9431 48.0282 72.8049ZM22.8705 67.4353H34.0075C39.9075 67.4353 42.8574 64.9162 42.8574 59.878C42.8574 54.8399 39.8412 52.3208 33.8086 52.3208H22.8705V67.4353ZM35.0019 95.1782C41.2996 95.1782 44.4484 92.5929 44.4484 87.4221C44.4484 84.9031 43.6198 82.9475 41.9625 81.5553C40.3052 80.0969 37.9519 79.3677 34.9024 79.3677H22.8705V95.1782H35.0019ZM91.9118 52.818C96.1545 52.818 99.8005 53.7792 102.85 55.7017C105.899 57.6241 108.153 60.2426 109.612 63.5572V53.5141H126.516V109H109.612V98.9568C108.153 102.271 105.899 104.89 102.85 106.812C99.8005 108.735 96.1545 109.696 91.9118 109.696C87.3377 109.696 83.2276 108.569 79.5816 106.315C76.0019 103.995 73.1513 100.68 71.03 96.3715C68.975 92.0625 67.9474 87.0244 67.9474 81.257C67.9474 75.4234 68.975 70.3852 71.03 66.1426C73.1513 61.8336 76.0019 58.5522 79.5816 56.2983C83.2276 53.9781 87.3377 52.818 91.9118 52.818ZM97.3808 67.7336C93.7348 67.7336 90.7848 68.9268 88.5309 71.3133C86.3433 73.6998 85.2495 77.0144 85.2495 81.257C85.2495 85.4997 86.3433 88.8143 88.5309 91.2007C90.7848 93.5872 93.7348 94.7805 97.3808 94.7805C100.961 94.7805 103.877 93.5541 106.131 91.1013C108.452 88.6485 109.612 85.3671 109.612 81.257C109.612 77.0807 108.452 73.7992 106.131 71.4127C103.877 68.96 100.961 67.7336 97.3808 67.7336ZM155.227 63.955C157.348 60.5741 160.066 57.8893 163.381 55.9005C166.762 53.9118 170.408 52.9174 174.319 52.9174V71.1144H169.446C164.939 71.1144 161.425 72.0757 158.906 73.9981C156.453 75.9206 155.227 79.1688 155.227 83.743V109H138.223V53.5141H155.227V63.955ZM216.04 52.818C220.614 52.818 224.691 53.9781 228.27 56.2983C231.916 58.5522 234.767 61.8336 236.822 66.1426C238.943 70.3852 240.004 75.4234 240.004 81.257C240.004 87.0244 238.943 92.0625 236.822 96.3715C234.767 100.68 231.916 103.995 228.27 106.315C224.691 108.569 220.614 109.696 216.04 109.696C211.797 109.696 208.151 108.735 205.102 106.812C202.052 104.89 199.831 102.271 198.439 98.9568V109H181.436V35.4165H198.439V63.5572C199.831 60.2426 202.052 57.6241 205.102 55.7017C208.151 53.7792 211.797 52.818 216.04 52.818ZM210.571 67.7336C206.991 67.7336 204.041 68.96 201.721 71.4127C199.467 73.7992 198.34 77.0807 198.34 81.257C198.34 85.3671 199.467 88.6485 201.721 91.1013C204.041 93.5541 206.991 94.7805 210.571 94.7805C214.217 94.7805 217.133 93.5872 219.321 91.2007C221.575 88.8143 222.702 85.4997 222.702 81.257C222.702 77.0144 221.575 73.6998 219.321 71.3133C217.133 68.9268 214.217 67.7336 210.571 67.7336ZM301.529 79.7655C301.529 81.1576 301.364 82.6823 301.032 84.3396H262.55C262.749 88.5159 263.809 91.5322 265.732 93.3884C267.654 95.1782 270.107 96.0732 273.09 96.0732C275.609 96.0732 277.697 95.4434 279.355 94.1839C281.012 92.9243 282.106 91.3002 282.636 89.3114H300.634C299.905 93.2226 298.314 96.7361 295.861 99.8518C293.409 102.901 290.293 105.321 286.514 107.111C282.736 108.834 278.526 109.696 273.886 109.696C268.45 109.696 263.611 108.569 259.368 106.315C255.192 103.995 251.91 100.68 249.524 96.3715C247.137 92.0625 245.944 87.0244 245.944 81.257C245.944 75.4234 247.104 70.3852 249.424 66.1426C251.811 61.8336 255.125 58.5522 259.368 56.2983C263.611 53.9781 268.45 52.818 273.886 52.818C279.388 52.818 284.227 53.945 288.404 56.1989C292.58 58.4528 295.795 61.6348 298.049 65.7448C300.369 69.7886 301.529 74.4622 301.529 79.7655ZM284.327 77.1801C284.393 73.5341 283.399 70.8161 281.344 69.0263C279.355 67.1701 276.869 66.242 273.886 66.242C270.77 66.242 268.185 67.1701 266.13 69.0263C264.075 70.8824 262.914 73.6004 262.649 77.1801H284.327ZM327.397 63.955C329.518 60.5741 332.236 57.8893 335.551 55.9005C338.932 53.9118 342.578 52.9174 346.489 52.9174V71.1144H341.616C337.109 71.1144 333.595 72.0757 331.076 73.9981C328.623 75.9206 327.397 79.1688 327.397 83.743V109H310.393V53.5141H327.397V63.955Z" fill="url(#paint0_linear_1_524)"/>
<rect x="276.876" y="92.7993" width="71.1241" height="33.6501" rx="1.73157" fill="white"/>
<path d="M300.121 107.284C300.121 108.398 299.865 109.421 299.353 110.353C298.842 111.267 298.056 112.007 296.996 112.573C295.937 113.139 294.621 113.423 293.05 113.423H290.145V120.329H285.458V101.09H293.05C294.585 101.09 295.882 101.355 296.942 101.884C298.001 102.414 298.796 103.145 299.326 104.077C299.856 105.009 300.121 106.078 300.121 107.284ZM292.694 109.695C293.589 109.695 294.256 109.485 294.694 109.065C295.133 108.645 295.352 108.051 295.352 107.284C295.352 106.516 295.133 105.922 294.694 105.502C294.256 105.082 293.589 104.872 292.694 104.872H290.145V109.695H292.694ZM312.372 120.329L308.371 113.066H307.247V120.329H302.561V101.09H310.426C311.943 101.09 313.231 101.355 314.291 101.884C315.369 102.414 316.173 103.145 316.702 104.077C317.232 104.991 317.497 106.014 317.497 107.147C317.497 108.425 317.132 109.567 316.401 110.572C315.688 111.577 314.629 112.29 313.222 112.71L317.662 120.329H312.372ZM307.247 109.75H310.152C311.011 109.75 311.65 109.54 312.071 109.12C312.509 108.7 312.728 108.106 312.728 107.338C312.728 106.608 312.509 106.032 312.071 105.612C311.65 105.192 311.011 104.981 310.152 104.981H307.247V109.75ZM329.538 120.521C327.729 120.521 326.067 120.101 324.55 119.26C323.052 118.42 321.855 117.25 320.96 115.752C320.083 114.236 319.644 112.536 319.644 110.655C319.644 108.773 320.083 107.083 320.96 105.584C321.855 104.086 323.052 102.917 324.55 102.076C326.067 101.236 327.729 100.816 329.538 100.816C331.347 100.816 333.001 101.236 334.499 102.076C336.015 102.917 337.203 104.086 338.062 105.584C338.939 107.083 339.377 108.773 339.377 110.655C339.377 112.536 338.939 114.236 338.062 115.752C337.185 117.25 335.997 118.42 334.499 119.26C333.001 120.101 331.347 120.521 329.538 120.521ZM329.538 116.246C331.073 116.246 332.297 115.734 333.211 114.711C334.142 113.688 334.608 112.336 334.608 110.655C334.608 108.955 334.142 107.603 333.211 106.598C332.297 105.575 331.073 105.064 329.538 105.064C327.985 105.064 326.743 105.566 325.811 106.571C324.897 107.576 324.441 108.937 324.441 110.655C324.441 112.354 324.897 113.715 325.811 114.738C326.743 115.743 327.985 116.246 329.538 116.246Z" fill="#12131B"/>
<defs>
<linearGradient id="paint0_linear_1_524" x1="174" y1="31.9217" x2="174" y2="149" gradientUnits="userSpaceOnUse">
<stop stop-color="#FBA931"/>
<stop offset="1" stop-color="#FBC231"/>
</linearGradient>
</defs>
</svg>
