<svg width="222" height="43" viewBox="0 0 222 43" fill="none" xmlns="http://www.w3.org/2000/svg">
<path d="M7.74012 17.6301C9.87746 17.6301 11.6101 15.8975 11.6101 13.7601C11.6101 11.6228 9.87746 9.89014 7.74012 9.89014C5.60278 9.89014 3.87012 11.6228 3.87012 13.7601C3.87012 15.8975 5.60278 17.6301 7.74012 17.6301Z" stroke="#FBB231" stroke-width="2.58" stroke-linecap="round" stroke-linejoin="round"/>
<path d="M10.4749 16.4946L15.4801 21.4998" stroke="#FBB231" stroke-width="2.58" stroke-linecap="round" stroke-linejoin="round"/>
<path d="M25.8001 11.1802L10.4749 26.5054" stroke="#FBB231" stroke-width="2.58" stroke-linecap="round" stroke-linejoin="round"/>
<path d="M7.74012 33.1101C9.87746 33.1101 11.6101 31.3775 11.6101 29.2401C11.6101 27.1028 9.87746 25.3701 7.74012 25.3701C5.60278 25.3701 3.87012 27.1028 3.87012 29.2401C3.87012 31.3775 5.60278 33.1101 7.74012 33.1101Z" stroke="#FBB231" stroke-width="2.58" stroke-linecap="round" stroke-linejoin="round"/>
<path d="M19.0923 25.1123L25.8003 31.8203" stroke="#FBB231" stroke-width="2.58" stroke-linecap="round" stroke-linejoin="round"/>
<path d="M42.0023 25.4V20.4464H46.4399C46.9674 20.4464 47.449 20.3432 47.8847 20.1368C48.3434 19.9075 48.7103 19.5749 48.9855 19.1392C49.2607 18.6805 49.3983 18.1187 49.3983 17.4536C49.3983 16.7885 49.2607 16.2381 48.9855 15.8024C48.7103 15.3437 48.3434 15.0112 47.8847 14.8048C47.449 14.5755 46.9674 14.4608 46.4399 14.4608H42.0023V9.5072H47.7815C49.3639 9.5072 50.7858 9.82827 52.0471 10.4704C53.3314 11.0896 54.3404 11.9955 55.0743 13.188C55.8311 14.3576 56.2095 15.7795 56.2095 17.4536C56.2095 19.1048 55.8311 20.5267 55.0743 21.7192C54.3404 22.9117 53.3314 23.8291 52.0471 24.4712C50.7858 25.0904 49.3639 25.4 47.7815 25.4H42.0023ZM36.4295 34V9.5072H43.3095V34H36.4295ZM64.2414 24.2304V19.4832H68.4038C69.344 19.4832 70.055 19.2539 70.5366 18.7952C71.0411 18.3365 71.2934 17.7288 71.2934 16.972C71.2934 16.2152 71.0411 15.6075 70.5366 15.1488C70.055 14.6901 69.344 14.4608 68.4038 14.4608H64.2414V9.5072H69.5046C71.2016 9.5072 72.6923 9.8168 73.9766 10.436C75.2608 11.0552 76.2699 11.9152 77.0038 13.016C77.7376 14.1168 78.1046 15.4011 78.1046 16.8688C78.1046 18.3365 77.7262 19.6208 76.9694 20.7216C76.2355 21.8224 75.2035 22.6824 73.8734 23.3016C72.5432 23.9208 70.9723 24.2304 69.1606 24.2304H64.2414ZM58.6686 34V9.5072H65.5486V34H58.6686ZM71.8782 34L65.2046 23.5424L71.3966 22.2008L79.687 34H71.8782ZM93.5875 34.4816C91.6611 34.4816 89.8838 34.1605 88.2555 33.5184C86.6502 32.8763 85.2398 31.9819 84.0243 30.8352C82.8318 29.6885 81.903 28.3355 81.2379 26.776C80.5729 25.2165 80.2403 23.5309 80.2403 21.7192C80.2403 19.8845 80.5614 18.1989 81.2035 16.6624C81.8686 15.1259 82.7974 13.7843 83.9899 12.6376C85.1825 11.4909 86.5814 10.608 88.1867 9.9888C89.815 9.34667 91.5923 9.0256 93.5187 9.0256C95.4451 9.0256 97.211 9.34667 98.8163 9.9888C100.445 10.608 101.855 11.4909 103.048 12.6376C104.24 13.7843 105.157 15.1373 105.8 16.6968C106.465 18.2333 106.797 19.9189 106.797 21.7536C106.797 23.5653 106.465 25.2509 105.8 26.8104C105.157 28.3469 104.24 29.7 103.048 30.8696C101.855 32.0163 100.456 32.9107 98.8507 33.5528C97.2454 34.172 95.491 34.4816 93.5875 34.4816ZM93.5187 28.4272C94.803 28.4272 95.9153 28.152 96.8555 27.6016C97.7958 27.0512 98.5182 26.2715 99.0227 25.2624C99.5273 24.2533 99.7795 23.0723 99.7795 21.7192C99.7795 20.7101 99.6305 19.8043 99.3323 19.0016C99.0571 18.176 98.6443 17.4765 98.0939 16.9032C97.5435 16.3069 96.8785 15.8597 96.0987 15.5616C95.3419 15.2405 94.4819 15.08 93.5187 15.08C92.2345 15.08 91.1222 15.3552 90.1819 15.9056C89.2417 16.4331 88.5193 17.2013 88.0147 18.2104C87.5102 19.1965 87.2579 20.3661 87.2579 21.7192C87.2579 22.7512 87.3955 23.68 87.6707 24.5056C87.9689 25.3312 88.3931 26.0421 88.9435 26.6384C89.4939 27.2117 90.1475 27.6589 90.9043 27.98C91.6841 28.2781 92.5555 28.4272 93.5187 28.4272Z" fill="#FBB331"/>
<path d="M117.757 34V30.1816H124.052C125.176 30.1816 126.047 29.8376 126.666 29.1496C127.309 28.4616 127.63 27.6475 127.63 26.7072C127.63 26.0651 127.492 25.4803 127.217 24.9528C126.942 24.4253 126.529 24.0125 125.978 23.7144C125.451 23.3933 124.809 23.2328 124.052 23.2328H117.757V19.4488H123.536C124.499 19.4488 125.268 19.208 125.841 18.7264C126.437 18.2448 126.735 17.5224 126.735 16.5592C126.735 15.5731 126.437 14.8392 125.841 14.3576C125.268 13.876 124.499 13.6352 123.536 13.6352H117.757V9.8168H124.086C125.692 9.8168 127.033 10.1149 128.111 10.7112C129.212 11.2845 130.038 12.0528 130.588 13.016C131.138 13.9563 131.414 14.9883 131.414 16.112C131.414 17.488 130.989 18.6805 130.141 19.6896C129.315 20.6757 128.1 21.4096 126.494 21.8912L126.701 20.3776C128.49 20.8821 129.866 21.7192 130.829 22.8888C131.815 24.0355 132.308 25.4229 132.308 27.0512C132.308 28.3355 131.987 29.5051 131.345 30.56C130.726 31.592 129.808 32.4291 128.593 33.0712C127.4 33.6904 125.944 34 124.224 34H117.757ZM114.317 34V9.8168H118.961V34H114.317ZM142.486 34.344C140.972 34.344 139.608 33.9656 138.392 33.2088C137.177 32.452 136.225 31.42 135.537 30.1128C134.849 28.8056 134.505 27.3379 134.505 25.7096C134.505 24.0584 134.849 22.5792 135.537 21.272C136.225 19.9648 137.177 18.9328 138.392 18.176C139.608 17.4192 140.972 17.0408 142.486 17.0408C143.678 17.0408 144.745 17.2816 145.685 17.7632C146.625 18.2448 147.37 18.9213 147.921 19.7928C148.494 20.6413 148.804 21.6045 148.85 22.6824V28.668C148.804 29.7688 148.494 30.7435 147.921 31.592C147.37 32.4405 146.625 33.1171 145.685 33.6216C144.745 34.1032 143.678 34.344 142.486 34.344ZM143.311 30.1816C144.573 30.1816 145.593 29.7688 146.373 28.9432C147.153 28.0947 147.542 27.0053 147.542 25.6752C147.542 24.8037 147.359 24.0355 146.992 23.3704C146.648 22.6824 146.155 22.1549 145.513 21.788C144.894 21.3981 144.16 21.2032 143.311 21.2032C142.486 21.2032 141.752 21.3981 141.11 21.788C140.49 22.1549 139.997 22.6824 139.63 23.3704C139.286 24.0355 139.114 24.8037 139.114 25.6752C139.114 26.5696 139.286 27.3608 139.63 28.0488C139.997 28.7139 140.49 29.2413 141.11 29.6312C141.752 29.9981 142.486 30.1816 143.311 30.1816ZM147.302 34V29.528L148.024 25.4688L147.302 21.4784V17.3848H151.774V34H147.302ZM155.76 34V17.3848H160.267V34H155.76ZM160.267 24.8152L158.512 23.6456C158.719 21.6045 159.315 19.9992 160.301 18.8296C161.287 17.6371 162.709 17.0408 164.567 17.0408C165.369 17.0408 166.092 17.1784 166.734 17.4536C167.376 17.7059 167.961 18.1301 168.488 18.7264L165.667 21.96C165.415 21.6848 165.106 21.4784 164.739 21.3408C164.395 21.2032 163.993 21.1344 163.535 21.1344C162.571 21.1344 161.78 21.444 161.161 22.0632C160.565 22.6595 160.267 23.5768 160.267 24.8152ZM178.921 34.344C177.728 34.344 176.65 34.0917 175.687 33.5872C174.724 33.0827 173.956 32.3947 173.382 31.5232C172.809 30.6517 172.5 29.6771 172.454 28.5992V22.6824C172.5 21.6045 172.809 20.6413 173.382 19.7928C173.979 18.9213 174.758 18.2448 175.722 17.7632C176.685 17.2816 177.751 17.0408 178.921 17.0408C180.457 17.0408 181.833 17.4192 183.049 18.176C184.264 18.9328 185.216 19.9648 185.904 21.272C186.615 22.5792 186.97 24.0584 186.97 25.7096C186.97 27.3379 186.615 28.8056 185.904 30.1128C185.216 31.42 184.264 32.452 183.049 33.2088C181.833 33.9656 180.457 34.344 178.921 34.344ZM169.702 34V9.1288H174.208V21.4784L173.451 25.4688L174.174 29.528V34H169.702ZM178.164 30.1816C178.99 30.1816 179.712 29.9981 180.331 29.6312C180.973 29.2413 181.466 28.7139 181.81 28.0488C182.177 27.3608 182.361 26.5696 182.361 25.6752C182.361 24.8037 182.177 24.0355 181.81 23.3704C181.466 22.6824 180.973 22.1549 180.331 21.788C179.689 21.3981 178.955 21.2032 178.13 21.2032C177.304 21.2032 176.57 21.3981 175.928 21.788C175.309 22.1549 174.816 22.6824 174.449 23.3704C174.105 24.0355 173.933 24.8037 173.933 25.6752C173.933 26.5696 174.105 27.3608 174.449 28.0488C174.816 28.7139 175.32 29.2413 175.962 29.6312C176.605 29.9981 177.338 30.1816 178.164 30.1816ZM197.872 34.344C196.129 34.344 194.581 33.9771 193.228 33.2432C191.874 32.4864 190.797 31.4544 189.994 30.1472C189.214 28.84 188.824 27.3493 188.824 25.6752C188.824 24.024 189.203 22.5563 189.96 21.272C190.739 19.9648 191.794 18.9328 193.124 18.176C194.454 17.3963 195.934 17.0064 197.562 17.0064C199.167 17.0064 200.578 17.3733 201.793 18.1072C203.032 18.8181 203.995 19.8043 204.683 21.0656C205.394 22.304 205.749 23.7144 205.749 25.2968C205.749 25.5949 205.726 25.9045 205.68 26.2256C205.657 26.5237 205.6 26.8677 205.508 27.2576L191.542 27.292V23.9208L203.41 23.8864L201.587 25.2968C201.541 24.3107 201.357 23.4851 201.036 22.82C200.738 22.1549 200.291 21.6504 199.695 21.3064C199.121 20.9395 198.41 20.756 197.562 20.756C196.668 20.756 195.888 20.9624 195.223 21.3752C194.558 21.7651 194.042 22.3269 193.675 23.0608C193.331 23.7717 193.159 24.6203 193.159 25.6064C193.159 26.6155 193.342 27.4984 193.709 28.2552C194.099 28.9891 194.649 29.5624 195.36 29.9752C196.071 30.3651 196.897 30.56 197.837 30.56C198.686 30.56 199.454 30.4224 200.142 30.1472C200.83 29.8491 201.426 29.4133 201.931 28.84L204.58 31.4888C203.777 32.4291 202.791 33.14 201.621 33.6216C200.474 34.1032 199.225 34.344 197.872 34.344ZM208.536 34V17.3848H213.042V34H208.536ZM213.042 24.8152L211.288 23.6456C211.494 21.6045 212.091 19.9992 213.077 18.8296C214.063 17.6371 215.485 17.0408 217.342 17.0408C218.145 17.0408 218.868 17.1784 219.51 17.4536C220.152 17.7059 220.737 18.1301 221.264 18.7264L218.443 21.96C218.191 21.6848 217.881 21.4784 217.514 21.3408C217.17 21.2032 216.769 21.1344 216.31 21.1344C215.347 21.1344 214.556 21.444 213.937 22.0632C213.341 22.6595 213.042 23.5768 213.042 24.8152Z" fill="white"/>
</svg>
