<svg width="256" height="256" viewBox="0 0 256 256" fill="none" xmlns="http://www.w3.org/2000/svg">
<circle cx="128" cy="128" r="128" fill="#12131B"/>
<g clip-path="url(#clip0_205_243)">
<path d="M167.179 147.162C167.471 147.589 167.58 148.114 167.484 148.622C167.387 149.13 167.093 149.579 166.664 149.871L150.07 161.169C149.64 161.459 149.113 161.568 148.603 161.472C148.093 161.376 147.642 161.083 147.349 160.656C147.201 160.446 147.097 160.208 147.043 159.957C146.989 159.706 146.986 159.447 147.034 159.194C147.082 158.942 147.18 158.702 147.322 158.488C147.465 158.274 147.649 158.09 147.864 157.948L164.434 146.65C164.764 146.42 165.158 146.301 165.561 146.308C165.88 146.308 166.194 146.387 166.476 146.535C166.758 146.684 166.999 146.899 167.179 147.162ZM147.349 126.396C147.527 126.132 147.768 125.915 148.05 125.766C148.332 125.617 148.647 125.54 148.967 125.542C149.36 125.546 149.743 125.664 150.07 125.883L172.498 141.159L182.915 134.058C182.512 133.031 182.304 131.939 182.303 130.837C182.296 128.813 182.99 126.848 184.268 125.273C185.546 123.699 187.33 122.61 189.319 122.191C191.308 121.772 193.382 122.047 195.191 122.972C197 123.896 198.434 125.412 199.252 127.266C200.07 129.119 200.222 131.196 199.683 133.148C199.143 135.099 197.944 136.807 196.289 137.982C194.633 139.157 192.621 139.729 190.592 139.601C188.563 139.473 186.639 138.653 185.146 137.279L175.979 143.526L185.146 149.773C186.766 148.261 188.906 147.423 191.127 147.43C193.013 147.431 194.85 148.033 196.368 149.149C197.885 150.265 199.003 151.835 199.559 153.63C200.114 155.425 200.076 157.35 199.452 159.122C198.828 160.894 197.65 162.421 196.09 163.478C194.53 164.534 192.672 165.066 190.787 164.994C188.901 164.921 187.089 164.25 185.615 163.077C184.142 161.905 183.085 160.293 182.599 158.478C182.113 156.663 182.224 154.741 182.915 152.994L147.864 129.104C147.649 128.962 147.465 128.779 147.322 128.564C147.18 128.35 147.082 128.11 147.034 127.858C146.986 127.606 146.989 127.346 147.043 127.095C147.097 126.844 147.201 126.606 147.349 126.396ZM186.224 130.837C186.223 131.477 186.35 132.112 186.599 132.703C186.847 133.293 187.211 133.829 187.671 134.278C188.122 134.734 188.66 135.096 189.254 135.343C189.847 135.59 190.484 135.717 191.127 135.717C191.77 135.717 192.407 135.59 193 135.343C193.593 135.096 194.131 134.734 194.583 134.278C195.041 133.828 195.405 133.292 195.653 132.702C195.901 132.111 196.029 131.477 196.029 130.837C196.029 130.197 195.901 129.563 195.653 128.972C195.405 128.381 195.041 127.846 194.583 127.396C194.13 126.943 193.591 126.584 192.998 126.338C192.405 126.093 191.769 125.967 191.127 125.967C190.485 125.967 189.849 126.093 189.256 126.338C188.662 126.584 188.124 126.943 187.671 127.396C187.211 127.845 186.847 128.38 186.599 128.971C186.35 129.562 186.223 130.196 186.224 130.837ZM187.671 152.774C187.213 153.224 186.849 153.76 186.601 154.35C186.352 154.941 186.225 155.575 186.225 156.215C186.225 156.855 186.352 157.489 186.601 158.08C186.849 158.671 187.213 159.206 187.671 159.656C188.122 160.112 188.66 160.474 189.254 160.721C189.847 160.968 190.484 161.095 191.127 161.095C191.77 161.095 192.407 160.968 193 160.721C193.593 160.474 194.131 160.112 194.583 159.656C195.041 159.206 195.405 158.671 195.653 158.08C195.901 157.489 196.029 156.855 196.029 156.215C196.029 155.575 195.901 154.941 195.653 154.35C195.405 153.76 195.041 153.224 194.583 152.774C194.13 152.321 193.591 151.962 192.998 151.717C192.405 151.471 191.769 151.345 191.127 151.345C190.485 151.345 189.849 151.471 189.256 151.717C188.662 151.962 188.124 152.321 187.671 152.774Z" fill="url(#paint0_linear_205_243)"/>
</g>
<path d="M114.336 121.92C119.541 123.029 123.723 125.632 126.88 129.728C130.037 133.739 131.616 138.347 131.616 143.552C131.616 151.061 128.971 157.035 123.68 161.472C118.475 165.824 111.179 168 101.792 168H59.936V78.144H100.384C109.515 78.144 116.64 80.2347 121.76 84.416C126.965 88.5973 129.568 94.272 129.568 101.44C129.568 106.731 128.16 111.125 125.344 114.624C122.613 118.123 118.944 120.555 114.336 121.92ZM81.824 114.496H96.16C99.744 114.496 102.475 113.728 104.352 112.192C106.315 110.571 107.296 108.224 107.296 105.152C107.296 102.08 106.315 99.7333 104.352 98.112C102.475 96.4907 99.744 95.68 96.16 95.68H81.824V114.496ZM97.952 150.336C101.621 150.336 104.437 149.525 106.4 147.904C108.448 146.197 109.472 143.765 109.472 140.608C109.472 137.451 108.405 134.976 106.272 133.184C104.224 131.392 101.365 130.496 97.696 130.496H81.824V150.336H97.952Z" fill="url(#paint1_linear_205_243)"/>
<rect x="140" y="81" width="71.1241" height="33.6501" rx="1.73157" fill="white"/>
<path d="M164.362 94.9544C164.362 96.069 164.106 97.0922 163.594 98.024C163.083 98.9375 162.297 99.6775 161.237 100.244C160.178 100.81 158.862 101.094 157.291 101.094H154.386V108H149.699V88.7606H157.291C158.826 88.7606 160.123 89.0255 161.183 89.5553C162.242 90.0852 163.037 90.816 163.567 91.7479C164.097 92.6797 164.362 93.7486 164.362 94.9544ZM156.935 97.3662C157.83 97.3662 158.497 97.1561 158.935 96.7359C159.374 96.3156 159.593 95.7218 159.593 94.9544C159.593 94.1871 159.374 93.5933 158.935 93.173C158.497 92.7528 157.83 92.5427 156.935 92.5427H154.386V97.3662H156.935ZM176.613 108L172.612 100.737H171.488V108H166.802V88.7606H174.667C176.184 88.7606 177.472 89.0255 178.532 89.5553C179.61 90.0852 180.414 90.816 180.943 91.7479C181.473 92.6614 181.738 93.6846 181.738 94.8174C181.738 96.0964 181.373 97.2383 180.642 98.2432C179.929 99.2482 178.87 99.9607 177.463 100.381L181.903 108H176.613ZM171.488 97.421H174.393C175.252 97.421 175.891 97.2109 176.312 96.7907C176.75 96.3705 176.969 95.7766 176.969 95.0093C176.969 94.2784 176.75 93.7029 176.312 93.2826C175.891 92.8624 175.252 92.6523 174.393 92.6523H171.488V97.421ZM193.779 108.192C191.97 108.192 190.308 107.772 188.791 106.931C187.293 106.091 186.096 104.921 185.201 103.423C184.324 101.907 183.885 100.207 183.885 98.3255C183.885 96.4435 184.324 94.7535 185.201 93.2552C186.096 91.757 187.293 90.5877 188.791 89.7472C190.308 88.9067 191.97 88.4865 193.779 88.4865C195.588 88.4865 197.241 88.9067 198.74 89.7472C200.256 90.5877 201.444 91.757 202.303 93.2552C203.18 94.7535 203.618 96.4435 203.618 98.3255C203.618 100.207 203.18 101.907 202.303 103.423C201.426 104.921 200.238 106.091 198.74 106.931C197.241 107.772 195.588 108.192 193.779 108.192ZM193.779 103.916C195.314 103.916 196.538 103.405 197.452 102.382C198.383 101.358 198.849 100.006 198.849 98.3255C198.849 96.6263 198.383 95.2742 197.452 94.2693C196.538 93.2461 195.314 92.7345 193.779 92.7345C192.226 92.7345 190.984 93.237 190.052 94.2419C189.138 95.2468 188.681 96.608 188.681 98.3255C188.681 100.025 189.138 101.386 190.052 102.409C190.984 103.414 192.226 103.916 193.779 103.916Z" fill="#12131B"/>
<defs>
<linearGradient id="paint0_linear_205_243" x1="173.5" y1="155.788" x2="173.5" y2="122" gradientUnits="userSpaceOnUse">
<stop stop-color="#FBA931"/>
<stop offset="1" stop-color="#FBC231"/>
</linearGradient>
<linearGradient id="paint1_linear_205_243" x1="133" y1="93.2809" x2="133" y2="175" gradientUnits="userSpaceOnUse">
<stop stop-color="#FBA931"/>
<stop offset="1" stop-color="#FBC231"/>
</linearGradient>
<clipPath id="clip0_205_243">
<rect width="58" height="58" fill="white" transform="translate(203 117) rotate(90)"/>
</clipPath>
</defs>
</svg>
